HIERARCHY
ROOT joint_Root
{
	OFFSET 0.0 0.0 0.0
	CHANNELS 6 Xposition Yposition Zposition Zrotation Xrotation Yrotation 
	JOINT Hips
	{
		OFFSET 4.5925 91.4895 -427.239
		CHANNELS 6 Xposition Yposition Zposition Zrotation Xrotation Yrotation 
		JOINT Spine
		{
			OFFSET 15.7357 0.0 0.0
			CHANNELS 6 Xposition Yposition Zposition Zrotation Xrotation Yrotation 
			JOINT Chest
			{
				OFFSET 8.98455 -0.406207 0.0
				CHANNELS 6 Xposition Yposition Zposition Zrotation Xrotation Yrotation 
				JOINT Neck
				{
					OFFSET 16.3773 0.0 0.0
					CHANNELS 6 Xposition Yposition Zposition Zrotation Xrotation Yrotation 
					JOINT Head
					{
						OFFSET 6.45672 0.0 0.0
						CHANNELS 6 Xposition Yposition Zposition Zrotation Xrotation Yrotation 
						End Site
						{
							OFFSET 0.0 0.0 0.0
						}
					}
				}
				JOINT Shoulder_L
				{
					OFFSET 12.9942 -0.242716 4.98039
					CHANNELS 6 Xposition Yposition Zposition Zrotation Xrotation Yrotation 
					JOINT UpperArm_L
					{
						OFFSET 5.34809 0.0 0.0
						CHANNELS 6 Xposition Yposition Zposition Zrotation Xrotation Yrotation 
						JOINT LowerArm_L
						{
							OFFSET 24.3286 1.87007e-05 0.0
							CHANNELS 6 Xposition Yposition Zposition Zrotation Xrotation Yrotation 
							JOINT Hand_L
							{
								OFFSET 22.2916 0.0 0.0
								CHANNELS 6 Xposition Yposition Zposition Zrotation Xrotation Yrotation 
								End Site
								{
									OFFSET 0.0 0.0 0.0
								}
							}
						}
					}
				}
				JOINT Shoulder_R
				{
					OFFSET 12.9945 -0.242716 -4.98039
					CHANNELS 6 Xposition Yposition Zposition Zrotation Xrotation Yrotation 
					JOINT UpperArm_R
					{
						OFFSET -5.34813 0.0 0.0
						CHANNELS 6 Xposition Yposition Zposition Zrotation Xrotation Yrotation 
						JOINT LowerArm_R
						{
							OFFSET -24.3289 0.000322201 0.0
							CHANNELS 6 Xposition Yposition Zposition Zrotation Xrotation Yrotation 
							JOINT Hand_R
							{
								OFFSET -22.2915 -0.000108084 0.0
								CHANNELS 6 Xposition Yposition Zposition Zrotation Xrotation Yrotation 
								End Site
								{
									OFFSET 0.0 0.0 0.0
								}
							}
						}
					}
				}
			}
		}
		JOINT UpperLeg_L
		{
			OFFSET -2.19248 -6.46944 0.0
			CHANNELS 6 Xposition Yposition Zposition Zrotation Xrotation Yrotation 
			JOINT LowerLeg_L
			{
				OFFSET 39.0811 0.0 -1.23785e-05
				CHANNELS 6 Xposition Yposition Zposition Zrotation Xrotation Yrotation 
				JOINT Foot_L
				{
					OFFSET 40.9854 0.0 -1.26872e-05
					CHANNELS 6 Xposition Yposition Zposition Zrotation Xrotation Yrotation 
					JOINT Toes_L
					{
						OFFSET 11.7543 0.0 0.0
						CHANNELS 6 Xposition Yposition Zposition Zrotation Xrotation Yrotation 
						End Site
						{
							OFFSET 0.0 0.0 0.0
						}
					}
				}
			}
		}
		JOINT UpperLeg_R
		{
			OFFSET -2.19251 6.46944 0.0
			CHANNELS 6 Xposition Yposition Zposition Zrotation Xrotation Yrotation 
			JOINT LowerLeg_R
			{
				OFFSET -39.0811 -0.00228153 -0.0401928
				CHANNELS 6 Xposition Yposition Zposition Zrotation Xrotation Yrotation 
				JOINT Foot_R
				{
					OFFSET -40.9854 0.0 0.0
					CHANNELS 6 Xposition Yposition Zposition Zrotation Xrotation Yrotation 
					JOINT Toes_R
					{
						OFFSET -11.7543 0.0 0.0
						CHANNELS 6 Xposition Yposition Zposition Zrotation Xrotation Yrotation 
						End Site
						{
							OFFSET 0.0 0.0 0.0
						}
					}
				}
			}
		}
	}
}
MOTION
Frames:	4
Frame Time:	0.0333333
0.000000 0.000000 0.000000 0.000000 0.000000 -0.000000 -1.495480 91.629100 0.631309 89.699400 0.235196 2.044510 15.735700 0.000005 -0.000001 83.275400 87.802900 -83.476400 8.984550 -0.406207 -0.000000 -3.402930 -0.494712 -0.416899 16.377300 -0.000001 -0.000001 2.270730 -2.559500 2.208570 6.456720 -0.000001 -0.000000 -4.264300 -2.254810 1.850080 12.994200 -0.242716 4.980390 -82.937100 -12.596600 -60.398200 5.348090 -0.000007 -0.000001 -41.439700 -66.549400 -83.709100 24.328600 0.000019 0.000005 12.345100 8.735660 -55.241600 22.291600 -0.000001 0.000005 21.192600 5.463880 -5.143290 12.994500 -0.242716 -4.980390 94.822800 -11.020500 -66.184700 -5.348130 -0.000001 -0.000004 -37.801000 -64.745100 -81.290400 -24.328900 0.000322 -0.000009 -1.704820 -1.392960 -50.739800 -22.291500 -0.000108 -0.000004 18.150600 5.634930 -13.714800 -2.192480 -6.469440 -0.000000 -175.949000 -9.832880 -5.407910 39.081100 -0.000007 -0.000012 -0.161395 0.338376 25.499900 40.985400 -0.000006 -0.000013 -0.974712 4.872730 -67.972500 11.754300 -0.000000 0.000003 -0.000136 -0.001335 -16.628400 -2.192510 6.469440 -0.000001 177.183000 23.199400 177.361000 -39.081100 -0.002282 -0.040193 0.012181 -0.019353 24.619400 -40.985400 0.000008 0.000006 7.399740 12.386500 -71.019200 -11.754300 -0.000006 -0.000006 -0.001141 -0.017392 -17.280400
0.000000 0.000000 0.000000 0.000000 0.000000 -0.000000 -1.467990 91.640100 0.710483 89.755400 0.171879 2.022120 15.735700 0.000005 -0.000001 83.527200 87.770600 -83.783900 8.984550 -0.406207 -0.000000 -3.336750 -0.477538 -0.527512 16.377300 -0.000001 -0.000001 2.128890 -2.700290 2.241770 6.456720 -0.000001 -0.000000 -4.311570 -2.436550 1.852980 12.994200 -0.242716 4.980390 -82.988000 -12.495600 -60.382900 5.348090 -0.000007 -0.000001 -40.081400 -66.438300 -82.520200 24.328600 0.000019 0.000005 12.574000 8.900790 -55.251900 22.291600 -0.000001 0.000005 21.171600 5.461540 -5.057410 12.994500 -0.242716 -4.980390 94.790200 -10.961500 -66.216500 -5.348130 -0.000001 -0.000004 -36.603400 -64.617100 -79.800500 -24.328900 0.000322 -0.000009 -1.677820 -1.379190 -50.569800 -22.291500 -0.000108 -0.000004 17.952100 5.633470 -13.601200 -2.192480 -6.469440 -0.000000 -176.009000 -9.954090 -5.272820 39.081100 -0.000007 -0.000012 -0.160635 0.339251 25.337700 40.985400 -0.000006 -0.000013 -0.953440 4.923680 -67.962800 11.754300 -0.000000 0.000003 -0.000158 -0.001515 -16.635100 -2.192510 6.469440 -0.000001 177.119000 23.109600 177.411000 -39.081100 -0.002282 -0.040193 0.016283 -0.028371 24.568600 -40.985400 0.000008 0.000006 7.469090 12.329500 -71.038800 -11.754300 -0.000006 -0.000006 -0.001191 -0.018083 -17.308500
0.000000 0.000000 0.000000 0.000000 0.000000 -0.000000 -1.427860 91.642800 0.780911 89.792700 0.073042 1.968480 15.735700 0.000005 -0.000001 83.629800 87.757300 -83.923400 8.984550 -0.406207 -0.000000 -3.309430 -0.469077 -0.600777 16.377300 -0.000001 -0.000001 2.089010 -2.787680 2.220800 6.456720 -0.000001 -0.000000 -4.416890 -2.545200 1.784790 12.994200 -0.242716 4.980390 -83.061600 -12.339400 -60.340500 5.348090 -0.000007 -0.000001 -39.182400 -66.031000 -81.539500 24.328600 0.000019 0.000005 12.635400 8.900860 -55.386500 22.291600 -0.000001 0.000005 21.193900 5.455030 -4.820660 12.994500 -0.242716 -4.980390 94.704600 -10.821000 -66.329700 -5.348130 -0.000001 -0.000004 -35.456300 -64.282200 -78.304600 -24.328900 0.000322 -0.000009 -1.577390 -1.293580 -50.633700 -22.291500 -0.000108 -0.000004 17.727400 5.628310 -13.209700 -2.192480 -6.469440 -0.000000 -176.049000 -10.176100 -5.215090 39.081100 -0.000007 -0.000012 -0.159885 0.338981 25.251800 40.985400 -0.000006 -0.000013 -0.910937 5.043220 -67.979800 11.754300 -0.000000 0.000003 -0.000170 -0.001611 -16.638600 -2.192510 6.469440 -0.000001 177.044000 23.122900 177.404000 -39.081100 -0.002282 -0.040193 0.015624 -0.026953 24.548400 -40.985400 0.000008 0.000006 7.423330 12.446300 -71.046300 -11.754300 -0.000006 -0.000006 -0.001059 -0.016248 -17.233900
0.000000 0.000000 0.000000 0.000000 0.000000 -0.000000 -1.391280 91.646700 0.832475 89.840200 -0.045466 1.951900 15.735700 0.000005 -0.000001 83.746500 87.723200 -84.063100 8.984550 -0.406207 -0.000000 -3.240790 -0.465384 -0.646460 16.377300 -0.000001 -0.000001 2.018770 -2.829460 2.177090 6.456720 -0.000001 -0.000000 -4.456810 -2.554580 1.682560 12.994200 -0.242716 4.980390 -83.212300 -12.120300 -60.452100 5.348090 -0.000007 -0.000001 -37.969300 -65.400400 -79.623000 24.328600 0.000019 0.000005 12.570300 8.560900 -56.273400 22.291600 -0.000001 0.000005 21.120400 5.447020 -4.533070 12.994500 -0.242716 -4.980390 94.546300 -10.572400 -66.569500 -5.348130 -0.000001 -0.000004 -33.990000 -63.775200 -76.147900 -24.328900 0.000322 -0.000009 -1.963330 -1.558800 -51.546800 -22.291500 -0.000108 -0.000004 17.390600 5.620920 -12.682700 -2.192480 -6.469440 -0.000000 -176.099000 -10.486000 -5.124450 39.081100 -0.000007 -0.000012 -0.157432 0.335126 25.162900 40.985400 -0.000006 -0.000013 -0.846338 5.207240 -67.986900 11.754300 -0.000000 0.000003 -0.000165 -0.001578 -16.637400 -2.192510 6.469440 -0.000001 176.948000 23.108900 177.410000 -39.081100 -0.002282 -0.040193 0.015323 -0.026285 24.556500 -40.985400 0.000008 0.000006 7.423210 12.582900 -71.058300 -11.754300 -0.000006 -0.000006 -0.000973 -0.015025 -17.184200
